<svg xmlns="http://www.w3.org/2000/svg" width="240" height="32" viewBox="0 0 240 32">
  <g fill="#2D1A22">
    <!-- Google Material Symbols Rounded: visibility -->
    <path transform="translate(0, 4)" d="M12 4.5C7 4.5 2.73 7.61 1 12c1.73 4.39 6 7.5 11 7.5s9.27-3.11 11-7.5c-1.73-4.39-6-7.5-11-7.5zM12 17c-2.76 0-5-2.24-5-5s2.24-5 5-5 5 2.24 5 5-2.24 5-5 5zm0-8c-1.66 0-3 1.34-3 3s1.34 3 3 3 3-1.34 3-3-1.34-3-3-3z"/>
    <!-- Text -->
    <text x="32" y="24" font-family="sans-serif" font-size="22" font-weight="800">Argus Platform</text>
  </g>
</svg>
